<?xml version="1.0" encoding="utf-8"?>
<!-- Generator: Adobe Illustrator 23.0.6, SVG Export Plug-In . SVG Version: 6.00 Build 0)  -->
<svg version="1.1" xmlns="http://www.w3.org/2000/svg" xmlns:xlink="http://www.w3.org/1999/xlink" x="0px" y="0px"
	 viewBox="0 0 1788.4 601.3" style="enable-background:new 0 0 1788.4 601.3;" xml:space="preserve">
<style type="text/css">
	.st0{fill:#00A79D;}
</style>
<g id="blue-green">
	<g>
		<g>
			<path class="st0" d="M168.8,117.9c-30.9,0-79.1,16.6-96.3,47V2.5H0v415.6h67.8l4.7-40.4c22.6,35.1,58.9,47,94.5,47
				c86.2,0,151-57.1,151-153.4C318.1,170.2,254.5,117.9,168.8,117.9z M162.3,357.5c-45.8,0-85-33.3-85-86.2
				c0-51.1,39.3-85.6,85-85.6c46.4,0,83.2,32.7,83.2,85.6C245.6,322.4,208.7,357.5,162.3,357.5z"/>
			<path class="st0" d="M648.7,125v293.7h-64.8l-4.7-39.8c-30.3,29.7-58.3,44-99.3,44c-70.2,0-121.3-52.9-121.3-143.9V125H431v153.4
				c0,44.6,24.4,78.5,70.8,78.5c44.6,0,74.9-37.5,74.9-82V125H648.7z"/>
			<path class="st0" d="M1090.4,42.4c0,56.5-85.6,56.5-85.6,0S1090.4-14.1,1090.4,42.4z"/>
			<rect x="1011.3" y="123.8" class="st0" width="72.5" height="294.3"/>
			<path class="st0" d="M1422.8,264.1v154h-72.5V264.7c0-44.6-24.4-78.5-70.8-78.5c-44.6,0-74.9,37.5-74.9,82v149.8h-71.9V124.4
				h64.8l4.8,39.8c29.7-29.1,59.5-44,96.3-44C1367.5,120.3,1422.8,172,1422.8,264.1z"/>
			<path class="st0" d="M1463.8,42.4c0-56.5,85.6-56.5,85.6,0S1463.8,98.8,1463.8,42.4z"/>
			<rect x="1470.3" y="123.8" class="st0" width="72.5" height="294.3"/>
			<path class="st0" d="M1788.4,409.2c-20.8,8.3-38.1,11.9-60.1,12.5c-63.6,2.4-105.2-33.9-105.2-107V188h-54.7v-62.4h54.7V50.1
				h72.5v75.5h80.9V188h-81.5v126.6c0,27.9,15.5,41.6,38.1,41.6c11.3,0,24.4-3.6,35.1-8.9L1788.4,409.2z"/>
			<path class="st0" d="M979.8,264.1c0-32.1-8.3-61.2-30.9-86.8l32.7-41.6l-53.5-40.4L899,132.1c-20.2-13.7-44-16.7-67.2-16.7
				c-82,0-148.6,57.1-148.6,148.6c0,91.6,57.1,147.4,148.6,147.4c36.3,0,74.3,18.5,74.3,58.9s-32.7,63-74.3,63s-76.7-25-76.7-63
				h-71.9c0,79.1,63.6,130.8,148.6,130.8c85,0,146.9-49.9,146.9-130.8c0-37.5-11.9-72.6-60.7-96.9
				C966.2,351.5,979.8,300.4,979.8,264.1z M867.8,196.7c2.7,0,5.4,0.3,7.9,0.9c6.2,1.3,11.8,4.4,16.6,9.2c4.3,4.3,7.2,9.2,8.8,14.6
				c0.9,3.1,1.4,6.4,1.4,9.9c0,9.5-3.4,17.7-10.2,24.5l-48.9-48.9C850.2,200.1,858.3,196.7,867.8,196.7z M921.6,285.1
				c-1.3,1.3-2.9,2-4.9,2h-7.2l-19.3,0l-22.5,22.5l17.1,17.1c1.3,1.3,2,3,2,4.9c0,1.9-0.7,3.6-1.9,4.9c-1.3,1.3-3,2-4.9,2
				c-1.9,0-3.6-0.7-4.9-2L858,319.4c-8.7,8.7-17.8,14.4-27.2,17.1l0,12.1l-0.1,19.8c0,1.9-0.7,3.6-1.9,4.9c-1.3,1.3-3,2-4.9,2
				c-1.9,0.1-3.5-0.6-4.9-2c-1.4-1.4-2-3-2-4.9l-0.1-20.6l0-9.5c-0.5,0-1.2-0.1-2.1-0.2c-0.9-0.1-2.7-0.5-5.4-1
				c-2.7-0.6-5.2-1.3-7.7-2.2c-2.5-0.8-5.3-2.2-8.5-4c-3.1-1.8-6-4-8.4-6.4l68.5-68.5l-9.8-9.8l-68.5,68.5c-2.6-2.6-4.8-5.5-6.7-8.8
				c-1.9-3.2-3.3-6.3-4.1-9.1c-0.9-2.9-1.6-5.5-2.1-8c-0.5-2.5-0.8-4.4-0.8-5.8l-0.1-2.2l-8,0.5l-21.8,1.3c-2,0.1-3.8-0.6-5.3-2.1
				c-1.2-1.2-1.9-2.7-2-4.5c-0.1-1.9,0.6-3.5,1.8-5c1.3-1.4,2.9-2.2,4.7-2.4l22.2-1.3l10.6-0.6c2.8-8.7,8.3-17.2,16.5-25.4
				L762.7,224c-1.3-1.3-2-3-2-4.9c0-1.9,0.6-3.6,2-4.9c1.3-1.3,2.9-2,4.9-2c2,0,3.6,0.7,4.9,2l17.1,17.1l22.5-22.5v-26.4
				c0-2,0.7-3.6,2-4.9c1.3-1.3,3-2,4.9-2c1.9,0,3.5,0.7,4.9,2c1.3,1.3,2,2.9,2,4.9v26.5l64.5,64.5l22.7,0h3.8c1.9,0,3.5,0.7,4.9,2
				c1.3,1.3,2,2.9,2,4.9C923.6,282.2,922.9,283.8,921.6,285.1z"/>
		</g>
	</g>
</g>
<g id="Layer_2">
</g>
<g id="Layer_3">
</g>
</svg>
